<?xml version="1.0" encoding="UTF-8" standalone="no"?>
<svg
   xml:space="preserve"
   width="97"
   height="97"
   version="1.1"
   id="svg1"
   sodipodi:docname="gitgps.svg"
   inkscape:version="1.4.2 (ebf0e940d0, 2025-05-08)"
   xmlns:inkscape="http://www.inkscape.org/namespaces/inkscape"
   xmlns:sodipodi="http://sodipodi.sourceforge.net/DTD/sodipodi-0.dtd"
   xmlns="http://www.w3.org/2000/svg"
   xmlns:svg="http://www.w3.org/2000/svg"><defs
   id="defs1"><inkscape:path-effect
     effect="powermask"
     id="path-effect2"
     is_visible="true"
     lpeversion="1"
     uri="#mask-powermask-path-effect2"
     invert="false"
     hide_mask="false"
     background="true"
     background_color="#ffffffff" /><mask
     maskUnits="userSpaceOnUse"
     id="mask-powermask-path-effect2"><path
       id="mask-powermask-path-effect2_box"
       style="fill:#ffffff;fill-opacity:1"
       d="m 1.55475,1.55775 h 93.8885 v 93.8865 H 1.55475 Z" /><path
       d="m 73.387465,42.957118 a 24.887167,24.887167 0 0 0 -49.774156,-0.132864 38.613585,38.613585 0 0 0 23.732822,35.925858 2.7679989,2.7679989 0 0 0 1.151488,0.246352 2.8012149,2.8012149 0 0 0 1.159791,-0.24912 38.608049,38.608049 0 0 0 23.730055,-35.790226 z M 48.497619,73.183666 A 32.421571,32.421571 0 0 1 29.14377,43.012478 a 19.353848,19.353848 0 1 1 38.707697,0 c 0,0.05813 0,0.12456 0,0.17992 A 32.385587,32.385587 0 0 1 48.497619,73.183666 Z m 0,-41.243184 A 11.071996,11.071996 0 1 0 59.569614,43.012478 11.071996,11.071996 0 0 0 48.497619,31.940482 Z m 0,16.607994 a 5.5359978,5.5359978 0 1 1 5.535998,-5.535998 5.5359978,5.5359978 0 0 1 -5.535998,5.535998 z"
       id="path2"
       style="fill:#000000;stroke-width:2.768"
       inkscape:label="gps" /></mask><filter
     id="mask-powermask-path-effect2_inverse"
     inkscape:label="filtermask-powermask-path-effect2"
     style="color-interpolation-filters:sRGB"
     height="100"
     width="100"
     x="-50"
     y="-50"><feColorMatrix
       id="mask-powermask-path-effect2_primitive1"
       values="1"
       type="saturate"
       result="fbSourceGraphic" /><feColorMatrix
       id="mask-powermask-path-effect2_primitive2"
       values="-1 0 0 0 1 0 -1 0 0 1 0 0 -1 0 1 0 0 0 1 0 "
       in="fbSourceGraphic" /></filter></defs><sodipodi:namedview
   id="namedview1"
   pagecolor="#505050"
   bordercolor="#eeeeee"
   borderopacity="1"
   inkscape:showpageshadow="0"
   inkscape:pageopacity="0"
   inkscape:pagecheckerboard="0"
   inkscape:deskcolor="#505050"
   inkscape:zoom="6.7410016"
   inkscape:cx="34.712942"
   inkscape:cy="49.250841"
   inkscape:window-width="1707"
   inkscape:window-height="888"
   inkscape:window-x="0"
   inkscape:window-y="0"
   inkscape:window-maximized="1"
   inkscape:current-layer="svg1" />
  <path
   fill="#f05133"
   d="M 92.71,44.408 52.591,4.291 c -2.31,-2.311 -6.057,-2.311 -8.369,0 L 4.288,44.222 c -2.311,2.313 -2.311,6.06 0,8.371 l 40.121,40.118 c 2.31,2.311 6.056,2.311 8.369,0 L 92.71,52.779 c 2.311,-2.311 2.311,-6.06 0,-8.371 z"
   id="path1"
   sodipodi:nodetypes="cccccccsc"
   inkscape:label="git"
   mask="url(#mask-powermask-path-effect2)"
   inkscape:path-effect="#path-effect2"
   inkscape:original-d="M 92.71,44.408 52.591,4.291 c -2.31,-2.311 -6.057,-2.311 -8.369,0 L 4.288,44.222 c -2.311,2.313 -2.311,6.06 0,8.371 l 40.121,40.118 c 2.31,2.311 6.056,2.311 8.369,0 L 92.71,52.779 c 2.311,-2.311 2.311,-6.06 0,-8.371 z" />
</svg>
